<svg xmlns="http://www.w3.org/2000/svg" version="1.1" xmlns:xlink="http://www.w3.org/1999/xlink" xmlns:svgjs="http://svgjs.com/svgjs" width="512" height="512" x="0" y="0" viewBox="0 0 64 64" style="enable-background:new 0 0 512 512" xml:space="preserve" class=""><g><g id="_07-Solution" data-name="07-Solution"><path d="m39 30a1 1 0 0 1 -.718-.3l-4.182-4.315a3.974 3.974 0 0 1 -2.9 1.185 3.9 3.9 0 0 1 -2.863-1.363 4.218 4.218 0 0 1 .169-5.579l-4.223-4.352a1 1 0 0 1 0-1.392l12.6-12.984a3 3 0 0 1 4.238 0l12.6 12.977a1 1 0 0 1 0 1.392l-4.9 5.05a1 1 0 0 1 -.718.3 1 1 0 0 1 -.719-.308l-.7-.73a1.9 1.9 0 0 0 -1.428-.585 1.929 1.929 0 0 0 -1.409.673 1.436 1.436 0 0 0 -.254.389l-1.834-.8a3.408 3.408 0 0 1 .593-.919 3.915 3.915 0 0 1 5.748-.149l3.5-3.61-11.918-12.28a.953.953 0 0 0 -1.361 0l-11.927 12.28 4.224 4.354a1 1 0 0 1 0 1.4l-.58.59a2.245 2.245 0 0 0 -.192 2.969 1.922 1.922 0 0 0 1.41.68 1.887 1.887 0 0 0 1.43-.595l.7-.722a1 1 0 0 1 .717-.3 1 1 0 0 1 .717.3l4.18 4.308 2.733-2.811 1.434 1.394-3.45 3.55a1 1 0 0 1 -.717.303z" fill="#000000" data-original="#000000" class=""></path><path d="m12 48c-.072 0-.145 0-.217-.006a4.08 4.08 0 0 1 -3.783-3.994h-6a1 1 0 0 1 -1-1v-18a3 3 0 0 1 3-3h18a1 1 0 0 1 1 1v7a1 1 0 0 1 -1 1h-1a2 2 0 0 0 -2 2.109 2.119 2.119 0 0 0 2.17 1.891h.83a1 1 0 0 1 1 1v7a1 1 0 0 1 -1 1h-6a4.02 4.02 0 0 1 -1.247 2.9 3.96 3.96 0 0 1 -2.753 1.1zm-9-6h6a1 1 0 0 1 1 1v.83a2.119 2.119 0 0 0 1.891 2.17 2 2 0 0 0 2.109-2v-1a1 1 0 0 1 1-1h6v-5a4.08 4.08 0 0 1 -3.994-3.784 3.966 3.966 0 0 1 1.094-2.969 4.02 4.02 0 0 1 2.9-1.247v-5h-17a1 1 0 0 0 -1 1z" fill="#000000" data-original="#000000" class=""></path><path d="m22 64h-18a3 3 0 0 1 -3-3v-18a1 1 0 0 1 1-1h7a1 1 0 0 1 1 1v1a2 2 0 0 0 2.109 2 2.119 2.119 0 0 0 1.891-2.17v-.83a1 1 0 0 1 1-1h7a1 1 0 0 1 1 1v6a4.02 4.02 0 0 1 2.9 1.247 3.966 3.966 0 0 1 1.092 2.966 4.08 4.08 0 0 1 -3.992 3.787v6a1 1 0 0 1 -1 1zm-19-20v17a1 1 0 0 0 1 1h17v-6a1 1 0 0 1 1-1h.83a2.119 2.119 0 0 0 2.17-1.891 2 2 0 0 0 -2-2.109h-1a1 1 0 0 1 -1-1v-6h-5a4.08 4.08 0 0 1 -3.784 3.994 3.963 3.963 0 0 1 -2.969-1.094 4.02 4.02 0 0 1 -1.247-2.9z" fill="#000000" data-original="#000000" class=""></path><path d="m40 64h-18a1 1 0 0 1 -1-1v-7a1 1 0 0 1 1-1h1a2 2 0 0 0 2-2.109 2.119 2.119 0 0 0 -2.17-1.891h-.83a1 1 0 0 1 -1-1v-7a1 1 0 0 1 1-1h6a4.02 4.02 0 0 1 1.247-2.9 3.962 3.962 0 0 1 2.966-1.092 4.08 4.08 0 0 1 3.787 3.992h6a1 1 0 0 1 1 1v18a3 3 0 0 1 -3 3zm-17-2h17a1 1 0 0 0 1-1v-17h-6a1 1 0 0 1 -1-1v-.83a2.119 2.119 0 0 0 -1.891-2.17 2 2 0 0 0 -2.109 2v1a1 1 0 0 1 -1 1h-6v5a4.08 4.08 0 0 1 3.994 3.784 3.966 3.966 0 0 1 -1.094 2.969 4.02 4.02 0 0 1 -2.9 1.247z" fill="#000000" data-original="#000000" class=""></path><path d="m51 39c-6.9 0-8.881-8-8.995-12.581l-3.712-3.712a1 1 0 0 1 0-1.414l3-3a1 1 0 0 1 1.414 0l9 9-1.414 1.414-8.293-8.293-1.586 1.586 3.293 3.293a1 1 0 0 1 .293.707c0 .11.1 11 7 11z" fill="#000000" data-original="#000000" class=""></path><path d="m61 42h-2v-4l1.958-21.583-7.386-6.462-7-.873.252-1.982 7.3.91a1 1 0 0 1 .535.24l8 7a1 1 0 0 1 .341.84l-2 22z" fill="#000000" data-original="#000000" class=""></path><path d="m47 37h2v5h-2z" fill="#000000" data-original="#000000" class=""></path><path d="m62 49h-16a1 1 0 0 1 -1-1v-6a1 1 0 0 1 1-1h16a1 1 0 0 1 1 1v6a1 1 0 0 1 -1 1zm-15-2h14v-4h-14z" fill="#000000" data-original="#000000" class=""></path><path d="m46 48h2v15h-2z" fill="#000000" data-original="#000000" class=""></path><path d="m60 48h2v15h-2z" fill="#000000" data-original="#000000" class=""></path><path d="m47 19h2v6h-2z" fill="#000000" data-original="#000000" class=""></path><path d="m12 11h8v2h-8z" fill="#000000" data-original="#000000" class=""></path><path d="m13.964 16.5h7.071v2h-7.071z" transform="matrix(.707 -.707 .707 .707 -7.249 17.5)" fill="#000000" data-original="#000000" class=""></path><path d="m16.5 2.964h2v7.071h-2z" transform="matrix(.707 -.707 .707 .707 .529 14.278)" fill="#000000" data-original="#000000" class=""></path><path d="m5 58h2v2h-2z" fill="#000000" data-original="#000000" class=""></path><path d="m9 58h10v2h-10z" fill="#000000" data-original="#000000" class=""></path></g></g></svg>