<svg xmlns="http://www.w3.org/2000/svg" xmlns:svgjs="http://svgjs.com/svgjs" xmlns:xlink="http://www.w3.org/1999/xlink" width="512" height="512" x="0" y="0" version="1.1" viewBox="0 0 682.667 682.667" style="enable-background:new 0 0 512 512" xml:space="preserve"><g><defs id="defs5947"><clipPath id="clipPath5973" clipPathUnits="userSpaceOnUse"><path id="path5971" fill="#000" d="M 0,512 H 512 V 0 H 0 Z" data-original="#000000"/></clipPath></defs><g id="g5949" transform="matrix(1.3333333,0,0,-1.3333333,0,682.66667)"><g id="g5951" transform="translate(191.8887,113.5615)"><path d="M 0,0 21.429,21.43 0.521,56.975" style="stroke-width:15;stroke-linecap:round;stroke-linejoin:round;stroke-miterlimit:10;stroke-dasharray:none;stroke-opacity:1" id="path5953" fill="none" stroke="#000" stroke-dasharray="none" stroke-linecap="round" stroke-linejoin="round" stroke-miterlimit="10" stroke-width="15" data-original="#000000"/></g><g id="g5955" transform="translate(223.3184,67.8477)"><path d="M 0,0 -59.879,87.096" style="stroke-width:15;stroke-linecap:round;stroke-linejoin:round;stroke-miterlimit:10;stroke-dasharray:none;stroke-opacity:1" id="path5957" fill="none" stroke="#000" stroke-dasharray="none" stroke-linecap="round" stroke-linejoin="round" stroke-miterlimit="10" stroke-width="15" data-original="#000000"/></g><g id="g5959" transform="translate(189.0303,33.5596)"><path d="M 0,0 -24.811,34.74" style="stroke-width:15;stroke-linecap:round;stroke-linejoin:round;stroke-miterlimit:10;stroke-dasharray:none;stroke-opacity:1" id="path5961" fill="none" stroke="#000" stroke-dasharray="none" stroke-linecap="round" stroke-linejoin="round" stroke-miterlimit="10" stroke-width="15" data-original="#000000"/></g><g id="g5963" transform="translate(143.8799,96.7803)"><path d="M 0,0 -19.13,26.779" style="stroke-width:15;stroke-linecap:round;stroke-linejoin:round;stroke-miterlimit:10;stroke-dasharray:none;stroke-opacity:1" id="path5965" fill="none" stroke="#000" stroke-dasharray="none" stroke-linecap="round" stroke-linejoin="round" stroke-miterlimit="10" stroke-width="15" data-original="#000000"/></g><g id="g5967"><g id="g5969" clip-path="url(#clipPath5973)"><g id="g5975" transform="translate(26.1729,182.1338)"><path d="m 0,0 -15.714,-15.714 c -3.945,-3.945 -3.945,-10.341 0,-14.286 L 41.43,-87.144 c 3.944,-3.944 10.341,-3.944 14.285,0 l 15.715,15.715" style="stroke-width:15;stroke-linecap:round;stroke-linejoin:round;stroke-miterlimit:10;stroke-dasharray:none;stroke-opacity:1" id="path5977" fill="none" stroke="#000" stroke-dasharray="none" stroke-linecap="round" stroke-linejoin="round" stroke-miterlimit="10" stroke-width="15" data-original="#000000"/></g><g id="g5979" transform="translate(317.6045,316.4209)"><path d="m 0,0 8.822,16.843 c 4.101,7.828 2.638,17.412 -3.61,23.66 l -50.424,50.424 c -6.248,6.249 -15.833,7.711 -23.66,3.611 l -16.843,-8.822" style="stroke-width:15;stroke-linecap:round;stroke-linejoin:round;stroke-miterlimit:10;stroke-dasharray:none;stroke-opacity:1" id="path5981" fill="none" stroke="#000" stroke-dasharray="none" stroke-linecap="round" stroke-linejoin="round" stroke-miterlimit="10" stroke-width="15" data-original="#000000"/></g><g id="g5983" transform="translate(247.6035,46.418)"><path d="m 0,0 -37.143,-37.143 c -2.367,-2.367 -6.205,-2.367 -8.571,0 L -60,-22.856 c -2.367,2.366 -2.367,6.204 0,8.571 l 37.143,37.142 c 2.367,2.368 6.205,2.368 8.572,0 L 0,8.572 C 2.367,6.205 2.367,2.367 0,0 Z" style="stroke-width:15;stroke-linecap:round;stroke-linejoin:round;stroke-miterlimit:10;stroke-dasharray:none;stroke-opacity:1" id="path5985" fill="none" stroke="#000" stroke-dasharray="none" stroke-linecap="round" stroke-linejoin="round" stroke-miterlimit="10" stroke-width="15" data-original="#000000"/></g><g id="g5987" transform="translate(147.6025,146.4199)"><path d="m 0,0 134.437,72.36 c 9.479,5.102 20.146,7.587 30.904,7.201 l 27.518,-0.99" style="stroke-width:15;stroke-linecap:round;stroke-linejoin:round;stroke-miterlimit:10;stroke-dasharray:none;stroke-opacity:1" id="path5989" fill="none" stroke="#000" stroke-dasharray="none" stroke-linecap="round" stroke-linejoin="round" stroke-miterlimit="10" stroke-width="15" data-original="#000000"/></g><g id="g5991" transform="translate(140.46,424.9932)"><path d="m 0,0 0.989,-27.519 c 0.387,-10.757 -2.098,-21.423 -7.201,-30.903 l -72.36,-134.436" style="stroke-width:15;stroke-linecap:round;stroke-linejoin:round;stroke-miterlimit:10;stroke-dasharray:none;stroke-opacity:1" id="path5993" fill="none" stroke="#000" stroke-dasharray="none" stroke-linecap="round" stroke-linejoin="round" stroke-miterlimit="10" stroke-width="15" data-original="#000000"/></g><g id="g5995" transform="translate(61.8877,232.1348)"><path d="m 0,0 -35.715,-35.715 c -3.944,-3.945 -3.944,-10.341 0,-14.286 l 71.43,-71.429 c 3.944,-3.945 10.341,-3.945 14.286,0 l 35.714,35.715 z" style="stroke-width:15;stroke-linecap:round;stroke-linejoin:round;stroke-miterlimit:10;stroke-dasharray:none;stroke-opacity:1" id="path5997" fill="none" stroke="#000" stroke-dasharray="none" stroke-linecap="round" stroke-linejoin="round" stroke-miterlimit="10" stroke-width="15" data-original="#000000"/></g><g id="g5999" transform="translate(355.3799,278.6396)"><path d="M 0,0 -145.64,145.65" style="stroke-width:15;stroke-linecap:round;stroke-linejoin:round;stroke-miterlimit:10;stroke-dasharray:none;stroke-opacity:1" id="path6001" fill="none" stroke="#000" stroke-dasharray="none" stroke-linecap="round" stroke-linejoin="round" stroke-miterlimit="10" stroke-width="15" data-original="#000000"/></g><g id="g6003" transform="translate(184.9902,449.04)"><path d="m 0,0 -17.391,17.39 c -3.939,3.94 -10.33,3.94 -14.279,0 l -20,-20 c -3.94,-3.95 -3.94,-10.35 0,-14.3 l 214.279,-214.28 c 3.951,-3.94 10.351,-3.94 14.301,0 l 15.29,15.3" style="stroke-width:15;stroke-linecap:round;stroke-linejoin:round;stroke-miterlimit:10;stroke-dasharray:none;stroke-opacity:1" id="path6005" fill="none" stroke="#000" stroke-dasharray="none" stroke-linecap="round" stroke-linejoin="round" stroke-miterlimit="10" stroke-width="15" data-original="#000000"/></g><g id="g6007" transform="translate(359.0361,472.1748)"><path d="M 0,0 H 113.139" style="stroke-width:15;stroke-linecap:round;stroke-linejoin:round;stroke-miterlimit:10;stroke-dasharray:none;stroke-opacity:1" id="path6009" fill="none" stroke="#000" stroke-dasharray="none" stroke-linecap="round" stroke-linejoin="round" stroke-miterlimit="10" stroke-width="15" data-original="#000000"/></g><g id="g6011" transform="translate(431.7686,439.8496)"><path d="M 0,0 H -72.732" style="stroke-width:15;stroke-linecap:round;stroke-linejoin:round;stroke-miterlimit:10;stroke-dasharray:none;stroke-opacity:1" id="path6013" fill="none" stroke="#000" stroke-dasharray="none" stroke-linecap="round" stroke-linejoin="round" stroke-miterlimit="10" stroke-width="15" data-original="#000000"/></g><g id="g6015" transform="translate(504.5,504.5)"><path d="m 0,0 v -96.976 h -115.158 l -39.397,-29.295 v 29.295 h -23.234 V 0 Z" style="stroke-width:15;stroke-linecap:round;stroke-linejoin:round;stroke-miterlimit:10;stroke-dasharray:none;stroke-opacity:1" id="path6017" fill="none" stroke="#000" stroke-dasharray="none" stroke-linecap="round" stroke-linejoin="round" stroke-miterlimit="10" stroke-width="15" data-original="#000000"/></g><g id="g6019" transform="translate(467.7998,221.9502)"><path d="m 0,0 c 21.97,13.02 36.7,36.96 36.7,64.35 0,41.29 -33.47,74.759 -74.75,74.759 -41.29,0 -74.75,-33.469 -74.75,-74.759 0,-41.281 33.46,-74.75 74.75,-74.75 1.63,0 3.24,0.049 4.84,0.16" style="stroke-width:15;stroke-linecap:round;stroke-linejoin:round;stroke-miterlimit:10;stroke-dasharray:none;stroke-opacity:1" id="path6021" fill="none" stroke="#000" stroke-dasharray="none" stroke-linecap="round" stroke-linejoin="round" stroke-miterlimit="10" stroke-width="15" data-original="#000000"/></g><g id="g6023" transform="translate(405.5039,322.6709)"><path d="m 0,0 v -72.731 l 64.65,36.365 z" style="stroke-width:15;stroke-linecap:round;stroke-linejoin:round;stroke-miterlimit:10;stroke-dasharray:none;stroke-opacity:1" id="path6025" fill="none" stroke="#000" stroke-dasharray="none" stroke-linecap="round" stroke-linejoin="round" stroke-miterlimit="10" stroke-width="15" data-original="#000000"/></g></g></g></g></g></svg>