<svg xmlns="http://www.w3.org/2000/svg" width="46" height="32" viewBox="0 0 46 32">
  <g id="DMT_white" transform="translate(-112 16)">
    <g id="Group_8" data-name="Group 8" transform="translate(0 46)">
      <g id="Group_7" data-name="Group 7" transform="translate(-1)">
        <g id="Group_10" data-name="Group 10" transform="translate(0 -1)">
          <text id="DMT" transform="translate(122 -40)" fill="#fff" font-size="21" font-family="LongJohnson"><tspan x="0" y="0">DMT</tspan></text>
          <g id="Group_6" data-name="Group 6" transform="translate(127.088 -50.168) rotate(-14)">
            <path id="Path_3" data-name="Path 3" d="M20.5,14.761c-.194.068-.393.121-.586.172l-.313.083c-.195.051-.389.1-.584.15l-.01,0-.815.165c-.232.046-.472.094-.716.125l-.2.029c-.435.062-.885.126-1.337.161-.675.059-1.362.089-2.04.089-.363,0-.73-.009-1.091-.026a22.179,22.179,0,0,1-3.037-.358,17.632,17.632,0,0,1-5.238-1.826A10.054,10.054,0,0,1,1.1,10.59a6.3,6.3,0,0,1-.85-1.705L.179,8.667.135,8.445.052,8.018.032,7.9c0-.027,0-.055-.006-.082L.015,7.572,0,7.136A5.746,5.746,0,0,1,1.3,3.824l.139-.181A1.334,1.334,0,0,1,1.563,3.5c.018-.019.036-.037.057-.06L1.948,3.1a2.509,2.509,0,0,1,.276-.259c.038-.032.075-.064.116-.1l.391-.335.535-.383a3.589,3.589,0,0,1,.362-.239c.08-.046.158-.093.236-.14a7.213,7.213,0,0,1,.734-.4A6.876,6.876,0,0,1,7.559.061L7.272,1.213l-2.046,1.3.562-.679a12.993,12.993,0,0,0-2.17,2.3A4.041,4.041,0,0,0,3.16,6.68L3.212,7c.017.061.038.122.058.183.014.042.028.084.04.121s.027.082.04.123c.02.064.039.125.06.175l.154.313a4.55,4.55,0,0,0,.766,1.12,9.208,9.208,0,0,0,4.88,2.561q.434.093.881.155a13.269,13.269,0,0,0,1.868.132,12.865,12.865,0,0,0,1.562-.094,10.721,10.721,0,0,0,1.6-.31l.379-.1.362-.124.2-.065a1,1,0,0,0,.127-.047l.007,0,.375-.158.175-.053.414-.161q-.152-.067-.3-.136c-.228-.109-.457-.225-.68-.347a10.392,10.392,0,0,1-1.2-.76L14.384,9l.971.19a7.8,7.8,0,0,0,1.881.22l.225,0a9.9,9.9,0,0,0,2.421-.4,7.618,7.618,0,0,0,4.143-2.783l.273-.383.333.364a6.059,6.059,0,0,1,1.35,2.312c.013.049.026.1.04.148a4.228,4.228,0,0,1,.116.5c.028.222.051.446.068.672s-.009.42-.023.64l0,.045-.014.179-.033.179-.07.348a7.246,7.246,0,0,1-1.423,2.856,12.518,12.518,0,0,1-3.054,2.654l-.845.539.271-.734a6.17,6.17,0,0,0,.3-1.243c.031-.215.052-.414.062-.6,0-.08,0-.16,0-.239-.24.087-.483.166-.722.244Z" transform="translate(0 0)" fill="#231f20" opacity="0.2"/>
            <g id="Group_5" data-name="Group 5" transform="translate(0.658 1.051)">
              <path id="Path_4" data-name="Path 4" d="M20.5,14.12c-.194.068-.393.121-.586.172l-.313.083c-.195.051-.389.1-.585.15l-.009,0-.815.165c-.232.046-.472.094-.716.125l-.2.029c-.435.062-.885.126-1.337.161-.675.059-1.362.089-2.04.089-.363,0-.73-.009-1.091-.026a22.172,22.172,0,0,1-3.037-.358,17.631,17.631,0,0,1-5.238-1.826A10.055,10.055,0,0,1,1.1,9.948a6.3,6.3,0,0,1-.85-1.705L.179,8.025.135,7.8.052,7.377.031,7.263c0-.027,0-.055-.005-.082L.015,6.93,0,6.495A5.747,5.747,0,0,1,1.3,3.182L1.44,3a1.339,1.339,0,0,1,.122-.139c.018-.019.036-.037.057-.06l.328-.344A2.5,2.5,0,0,1,2.224,2.2c.038-.032.075-.064.116-.1l.391-.335.535-.383a3.576,3.576,0,0,1,.363-.239L3.864,1S5.146.419,5.7.169a3.762,3.762,0,0,1,.955-.3L6.52.412l-.7.635-.036.144a6.87,6.87,0,0,0-2.17,2.3A4.041,4.041,0,0,0,3.16,6.038l.052.316c.017.061.038.122.058.183.014.042.028.084.039.121s.027.082.04.123c.02.064.039.125.06.175l.154.313a4.551,4.551,0,0,0,.766,1.12,9.208,9.208,0,0,0,4.88,2.561q.434.093.881.155a13.272,13.272,0,0,0,1.868.132,12.868,12.868,0,0,0,1.562-.094,10.726,10.726,0,0,0,1.6-.31l.379-.1.362-.124.2-.065a.979.979,0,0,0,.127-.047l.007,0,.375-.158.175-.053.414-.161q-.152-.067-.3-.136c-.228-.109-.457-.225-.68-.347a10.394,10.394,0,0,1-1.2-.76l-.584-.522.972.19a7.8,7.8,0,0,0,1.881.22l.225,0a9.9,9.9,0,0,0,2.421-.4,7.618,7.618,0,0,0,4.143-2.783L24.3,5.2l.333.365a6.061,6.061,0,0,1,1.35,2.312c.013.049.026.1.04.148a4.233,4.233,0,0,1,.116.5c.028.222.051.446.068.672s-.009.42-.023.64l0,.045-.014.179-.033.179-.07.348a7.245,7.245,0,0,1-1.423,2.856A12.519,12.519,0,0,1,21.586,16.1l-.845.539.271-.734a6.168,6.168,0,0,0,.3-1.243c.031-.215.052-.414.062-.6q0-.12,0-.239c-.24.086-.483.166-.722.244Z" transform="translate(0)" fill="#fff"/>
              <g id="Group_4" data-name="Group 4" transform="translate(0.339 0.265)">
                <g id="Group_3" data-name="Group 3" transform="translate(0 0.108)">
                  <path id="Path_5" data-name="Path 5" d="M14.889,8.37a10.137,10.137,0,0,0,1.169.738c.211.115.433.229.661.338s.455.2.7.3l-.15.071a3.717,3.717,0,0,1-.348.141l-.351.137-.17.051-.348.146a1.367,1.367,0,0,1-.18.068l-.186.062-.374.128-.395.1a11.258,11.258,0,0,1-1.663.323,13.7,13.7,0,0,1-3.573-.039,10.027,10.027,0,0,1-5.982-2.82,4.77,4.77,0,0,1-.8-1.166l-.152-.308c-.045-.1-.07-.21-.107-.315s-.072-.212-.1-.319l-.053-.324a4.161,4.161,0,0,1,.473-2.634A7.056,7.056,0,0,1,5.2.675L6.207,0l.045-.182c.127-.045.023-.047-.525.085a6.466,6.466,0,0,0-1.256.49,10.625,10.625,0,0,0-.951.534,4.8,4.8,0,0,0-.438.294l-.426.3-.382.327a4.3,4.3,0,0,0-.368.336l-.335.351c-.053.059-.117.116-.162.179L1.268,2.9A5.583,5.583,0,0,0,0,6.126l.015.425.009.214c0,.036,0,.072.006.107l.02.106L.132,7.4l.043.214L.24,7.83a6.132,6.132,0,0,0,.828,1.661,9.78,9.78,0,0,0,3.343,2.865,17.139,17.139,0,0,0,5.111,1.781,21.65,21.65,0,0,0,2.966.349,22.785,22.785,0,0,0,3.056-.062c.51-.04,1.009-.116,1.514-.187.254-.032.5-.082.748-.132l.744-.151c.243-.059.483-.124.725-.187s.487-.125.716-.2c.465-.153.939-.3,1.375-.49q.018.305.011.62c-.011.2-.033.41-.063.619A6.443,6.443,0,0,1,21,15.582,12.3,12.3,0,0,0,24,12.981a7.1,7.1,0,0,0,1.39-2.791l.069-.344.031-.169L25.5,9.5c.014-.229.029-.452.025-.673s-.04-.443-.068-.657A5.568,5.568,0,0,0,24,5.3a7.981,7.981,0,0,1-4.311,2.889,10.338,10.338,0,0,1-2.545.415A8.4,8.4,0,0,1,14.889,8.37Z" transform="translate(0 0)" fill="#fec400"/>
                </g>
                <path id="Path_6" data-name="Path 6" d="M13.656,8.478a10.142,10.142,0,0,0,1.169.738c.211.115.433.229.662.338s.455.2.7.3l-.15.071c-.086.047-.22.09-.348.141l-.351.137-.17.051-.348.146a1.372,1.372,0,0,1-.18.068l-.186.062-.374.128-.395.1a11.262,11.262,0,0,1-1.663.323,13.7,13.7,0,0,1-3.574-.039,10.027,10.027,0,0,1-5.982-2.82,4.772,4.772,0,0,1-.8-1.166l-.152-.308c-.044-.1-.07-.21-.107-.315s-.072-.212-.1-.319L1.25,5.795a4.161,4.161,0,0,1,.473-2.634A7.055,7.055,0,0,1,3.963.783C4.976.083,5.085-.1,4.744.048L4.231.3c-.087.044-.182.085-.268.133L3.7.581A8.844,8.844,0,0,0,1.66,2.133a5.988,5.988,0,0,0-1.41,2.2A4.451,4.451,0,0,0,.158,6.98,5.792,5.792,0,0,0,1.772,9.62a10.4,10.4,0,0,0,3.269,2.088A16.007,16.007,0,0,0,9.382,12.8a18.06,18.06,0,0,0,4.534-.068,15.75,15.75,0,0,0,3.895-1.054,10.692,10.692,0,0,0,2.74-1.649A7.188,7.188,0,0,0,22.075,8.26l.228-.411.16-.392.075-.185c.022-.061.033-.121.05-.18l.087-.336a4.171,4.171,0,0,0,.1-1c-.005-.231-.008-.354-.008-.354a7.981,7.981,0,0,1-4.311,2.889,10.337,10.337,0,0,1-2.545.415A8.4,8.4,0,0,1,13.656,8.478Z" transform="translate(1.233 0)" fill="#231f20" opacity="0.5" style="mix-blend-mode: overlay;isolation: isolate"/>
              </g>
            </g>
          </g>
        </g>
      </g>
      <text id="Digital_Mind_Tech" data-name="Digital Mind Tech" transform="translate(112 -31)" fill="#fff" font-size="5" font-family="ScaredofBums-Regular, Scared of Bums" letter-spacing="0.24em"><tspan x="0" y="0">Digital Mind Tech</tspan></text>
    </g>
  </g>
</svg>
